<svg xmlns="http://www.w3.org/2000/svg" xmlns:xlink="http://www.w3.org/1999/xlink" width="500" zoomAndPan="magnify" viewBox="0 0 375 374.999991" height="500" preserveAspectRatio="xMidYMid meet" version="1.0"><defs><g/><clipPath id="fc10a5effc"><path d="M 64.46875 60.050781 L 310.550781 60.050781 L 310.550781 306.132812 L 64.46875 306.132812 Z M 64.46875 60.050781 " clip-rule="nonzero"/></clipPath><clipPath id="f1ce66e931"><path d="M 187.511719 60.050781 C 119.554688 60.050781 64.46875 115.136719 64.46875 183.089844 C 64.46875 251.042969 119.554688 306.132812 187.511719 306.132812 C 255.464844 306.132812 310.550781 251.042969 310.550781 183.089844 C 310.550781 115.136719 255.464844 60.050781 187.511719 60.050781 " clip-rule="nonzero"/></clipPath><clipPath id="9347200997"><path d="M 50 76 L 316 76 L 316 295 L 50 295 Z M 50 76 " clip-rule="nonzero"/></clipPath><clipPath id="2829f7721f"><path d="M 37.5 97.238281 L 310.175781 65.625 L 334.789062 277.953125 L 62.117188 309.566406 Z M 37.5 97.238281 " clip-rule="nonzero"/></clipPath><clipPath id="266596c084"><path d="M 37.5 97.238281 L 310.175781 65.625 L 334.789062 277.953125 L 62.117188 309.566406 Z M 37.5 97.238281 " clip-rule="nonzero"/></clipPath><clipPath id="8bf455aa4b"><path d="M 37.5 97.238281 L 310.175781 65.625 L 334.789062 277.953125 L 62.117188 309.566406 Z M 37.5 97.238281 " clip-rule="nonzero"/></clipPath></defs><g clip-path="url(#fc10a5effc)"><g clip-path="url(#f1ce66e931)"><path fill="#ffe4cf" d="M 64.46875 60.050781 L 310.550781 60.050781 L 310.550781 306.132812 L 64.46875 306.132812 Z M 64.46875 60.050781 " fill-opacity="1" fill-rule="nonzero"/></g></g><path fill="#d3b094" d="M 222.910156 152.679688 C 242.417969 196.933594 234.605469 242.296875 210.867188 266.726562 C 187.125 291.15625 119.863281 339.132812 64.183594 251.863281 C 8.503906 164.589844 131.097656 84.882812 186.160156 118.570312 C 220.214844 139.390625 222.910156 152.679688 222.910156 152.679688 Z M 222.910156 152.679688 " fill-opacity="1" fill-rule="nonzero"/><g clip-path="url(#9347200997)"><g clip-path="url(#2829f7721f)"><g clip-path="url(#266596c084)"><g clip-path="url(#8bf455aa4b)"><path fill="#272023" d="M 200.996094 79.59375 C 210.6875 78.472656 219.738281 78.011719 228.804688 78.269531 C 230.835938 78.296875 233 78.308594 235.097656 78.328125 C 247.277344 78.355469 259.855469 78.40625 271.480469 81.515625 C 284.585938 84.972656 294.359375 91.902344 301.429688 102.613281 C 303.648438 105.960938 305.652344 109.660156 307.277344 113.53125 C 315.558594 133.542969 316.742188 159.023438 310.820312 189.261719 C 308.804688 196.179688 306.113281 202.910156 302.976562 209.171875 C 281.777344 256.1875 243.726562 287.203125 201.082031 292.144531 C 198.367188 292.460938 195.636719 292.644531 192.902344 292.765625 C 187.625 292.984375 182.292969 292.75 176.988281 292.1875 L 176.921875 292.195312 L 176.859375 292.199219 C 150.066406 292.6875 120.941406 285.449219 98.921875 272.863281 C 79.703125 261.855469 56.035156 241.273438 52.21875 205.546875 C 49.769531 184.402344 54.039062 159.664062 63.875 137.753906 C 66.144531 133.035156 68.917969 128.714844 72.007812 124.886719 C 75.386719 120.695312 79.097656 117.117188 83.382812 114 C 87.183594 111.199219 91.425781 108.808594 96.222656 106.679688 C 103.753906 104.429688 111.398438 102.039062 118.792969 99.738281 C 145.46875 91.46875 172.953125 82.84375 200.996094 79.59375 M 200.84375 78.300781 C 164.792969 82.480469 130.386719 95.25 95.820312 105.480469 C 91.210938 107.523438 86.839844 109.929688 82.675781 112.96875 C 78.507812 116.007812 74.613281 119.667969 71 124.085938 C 67.679688 128.203125 64.914062 132.589844 62.691406 137.171875 C 53.21875 158.253906 48.304688 183.066406 50.925781 205.695312 C 57.765625 269.773438 128.066406 294.386719 176.742188 293.460938 C 182.183594 294.074219 187.570312 294.234375 192.859375 294.082031 C 195.660156 293.953125 198.386719 293.769531 201.164062 293.445312 C 245.363281 288.320312 283.207031 256.085938 304.027344 209.773438 C 307.542969 202.8125 310.105469 196.09375 311.96875 189.585938 C 316.914062 164.441406 318.160156 136.777344 308.339844 113.082031 C 306.710938 109.207031 304.710938 105.507812 302.394531 101.910156 C 284.816406 75.117188 254.429688 77.332031 228.726562 77.035156 C 219.328125 76.75 210.019531 77.238281 200.84375 78.300781 Z M 200.84375 78.300781 " fill-opacity="1" fill-rule="nonzero"/></g></g></g></g><g fill="#000000" fill-opacity="1"><g transform="translate(111.049946, 161.918925)"><g><path d="M 1.734375 -0.328125 C 0.753906 -0.328125 0.175781 -0.582031 0 -1.09375 C 0 -1.65625 1.847656 -4.148438 5.546875 -8.578125 C 9.242188 -13.003906 13.304688 -17.804688 17.734375 -22.984375 C 22.160156 -28.171875 26.222656 -33.441406 29.921875 -38.796875 C 33.617188 -44.148438 35.46875 -47.921875 35.46875 -50.109375 C 35.46875 -51.492188 34.757812 -52.1875 33.34375 -52.1875 C 31.019531 -52.1875 28.566406 -51.570312 25.984375 -50.34375 C 23.410156 -49.113281 20.992188 -47.519531 18.734375 -45.5625 C 16.472656 -43.613281 14.289062 -41.429688 12.1875 -39.015625 C 10.082031 -36.609375 8.300781 -34.222656 6.84375 -31.859375 C 3.53125 -26.703125 1.875 -22.941406 1.875 -20.578125 C 1.875 -19.328125 2.390625 -18.703125 3.421875 -18.703125 C 4.835938 -18.703125 7.132812 -19.90625 10.3125 -22.3125 C 13.5 -24.71875 16.316406 -27.128906 18.765625 -29.546875 L 22.453125 -33.09375 C 22.535156 -33.175781 22.671875 -33.21875 22.859375 -33.21875 C 23.054688 -33.21875 23.15625 -33.15625 23.15625 -33.03125 L 23.03125 -32.765625 C 22.644531 -32.378906 22.117188 -31.84375 21.453125 -31.15625 C 20.785156 -30.46875 19.523438 -29.273438 17.671875 -27.578125 C 15.828125 -25.878906 14.097656 -24.375 12.484375 -23.0625 C 10.867188 -21.75 9.132812 -20.550781 7.28125 -19.46875 C 5.4375 -18.394531 3.976562 -17.859375 2.90625 -17.859375 C 1.351562 -17.859375 0.578125 -18.796875 0.578125 -20.671875 C 0.578125 -22.546875 1.125 -24.828125 2.21875 -27.515625 C 3.320312 -30.203125 4.914062 -33.003906 7 -35.921875 C 9.082031 -38.847656 11.425781 -41.597656 14.03125 -44.171875 C 16.632812 -46.753906 19.632812 -48.882812 23.03125 -50.5625 C 26.425781 -52.238281 29.800781 -53.078125 33.15625 -53.078125 C 34.007812 -53.078125 34.84375 -52.765625 35.65625 -52.140625 C 36.476562 -51.523438 36.890625 -50.582031 36.890625 -49.3125 C 36.890625 -48.039062 36.425781 -46.375 35.5 -44.3125 C 34.582031 -42.25 33.195312 -39.835938 31.34375 -37.078125 C 29.5 -34.328125 27.789062 -31.84375 26.21875 -29.625 C 24.644531 -27.414062 22.554688 -24.71875 19.953125 -21.53125 C 17.359375 -18.351562 15.546875 -16.148438 14.515625 -14.921875 C 13.484375 -13.703125 11.957031 -11.890625 9.9375 -9.484375 C 9.976562 -9.441406 10.171875 -9.546875 10.515625 -9.796875 C 28.828125 -26.398438 39.164062 -35.753906 41.53125 -37.859375 C 43.894531 -39.960938 45.175781 -41.125 45.375 -41.34375 C 45.570312 -41.5625 45.710938 -41.710938 45.796875 -41.796875 C 46.140625 -42.140625 46.578125 -42.3125 47.109375 -42.3125 C 47.648438 -42.3125 47.921875 -42.050781 47.921875 -41.53125 C 47.921875 -40.25 46.039062 -36.984375 42.28125 -31.734375 C 38.519531 -26.484375 34.765625 -21.472656 31.015625 -16.703125 C 27.273438 -11.929688 25.40625 -9.457031 25.40625 -9.28125 L 25.484375 -9.21875 C 28.097656 -11.5 33.476562 -16.429688 41.625 -24.015625 C 49.78125 -31.609375 56.898438 -38.15625 62.984375 -43.65625 C 69.066406 -49.164062 72.453125 -51.921875 73.140625 -51.921875 C 73.617188 -51.921875 73.859375 -51.617188 73.859375 -51.015625 C 73.859375 -49.859375 72.878906 -47.796875 70.921875 -44.828125 C 68.960938 -41.859375 65.46875 -37.191406 60.4375 -30.828125 C 60.21875 -30.566406 56.734375 -26.394531 49.984375 -18.3125 C 35.109375 -0.550781 27.671875 9.703125 27.671875 12.453125 C 27.671875 12.617188 27.8125 12.703125 28.09375 12.703125 C 28.375 12.703125 29.445312 12.21875 31.3125 11.25 C 33.1875 10.28125 34.488281 9.472656 35.21875 8.828125 C 35.945312 8.191406 36.375 7.875 36.5 7.875 C 36.632812 7.875 36.703125 7.96875 36.703125 8.15625 C 36.703125 8.351562 36.660156 8.492188 36.578125 8.578125 C 36.097656 9.179688 34.644531 10.171875 32.21875 11.546875 C 29.789062 12.921875 28.253906 13.609375 27.609375 13.609375 C 26.960938 13.609375 26.640625 13.328125 26.640625 12.765625 C 26.640625 10.054688 28.941406 5.285156 33.546875 -1.546875 C 40.765625 -12.335938 49.515625 -23.410156 59.796875 -34.765625 C 61.085938 -36.222656 63.472656 -39.101562 66.953125 -43.40625 C 70.429688 -47.707031 72.171875 -50.03125 72.171875 -50.375 C 72.171875 -50.457031 72.148438 -50.5 72.109375 -50.5 C 71.847656 -50.5 63.898438 -43.316406 48.265625 -28.953125 C 32.640625 -14.597656 22.53125 -5.226562 17.9375 -0.84375 C 17.414062 -0.320312 16.921875 -0.0625 16.453125 -0.0625 C 15.203125 -0.0625 14.578125 -0.210938 14.578125 -0.515625 C 14.578125 -0.816406 14.878906 -1.34375 15.484375 -2.09375 C 16.085938 -2.84375 19.3125 -6.789062 25.15625 -13.9375 C 38.914062 -30.75 45.796875 -39.5625 45.796875 -40.375 L 45.734375 -40.4375 C 45.347656 -40.269531 39.710938 -35.238281 28.828125 -25.34375 C 12.921875 -10.988281 3.890625 -2.648438 1.734375 -0.328125 Z M 1.734375 -0.328125 "/></g></g></g><g fill="#000000" fill-opacity="1"><g transform="translate(156.77581, 161.918925)"><g><path d="M 15.34375 -14.515625 L 15.34375 -14.578125 C 14.488281 -14.148438 13.546875 -13.128906 12.515625 -11.515625 C 11.484375 -9.898438 10.878906 -8.515625 10.703125 -7.359375 C 13.796875 -10.535156 15.34375 -12.921875 15.34375 -14.515625 Z M 1.609375 -1.03125 C 3.242188 -1.03125 5.890625 -2.75 9.546875 -6.1875 L 9.546875 -6.515625 C 9.546875 -7.847656 10.203125 -9.492188 11.515625 -11.453125 C 12.828125 -13.410156 14.019531 -14.664062 15.09375 -15.21875 C 14.96875 -15.351562 14.796875 -15.421875 14.578125 -15.421875 C 12.984375 -15.421875 10.347656 -13.59375 6.671875 -9.9375 C 2.992188 -6.28125 1.15625 -3.441406 1.15625 -1.421875 C 1.15625 -1.160156 1.304688 -1.03125 1.609375 -1.03125 Z M -0.390625 -1.9375 C -0.390625 -5.15625 1.46875 -8.367188 5.1875 -11.578125 C 8.90625 -14.785156 11.992188 -16.390625 14.453125 -16.390625 C 15.648438 -16.390625 16.25 -15.847656 16.25 -14.765625 C 16.25 -11.710938 14.617188 -8.660156 11.359375 -5.609375 C 11.609375 -5.523438 11.863281 -5.484375 12.125 -5.484375 C 13.332031 -5.484375 15.070312 -6.234375 17.34375 -7.734375 L 17.671875 -7.09375 C 14.921875 -5.25 12.835938 -4.328125 11.421875 -4.328125 C 10.859375 -4.328125 10.445312 -4.429688 10.1875 -4.640625 C 8.507812 -3.265625 6.742188 -2.144531 4.890625 -1.28125 C 3.046875 -0.425781 1.703125 0 0.859375 0 C 0.0234375 0 -0.390625 -0.644531 -0.390625 -1.9375 Z M -0.390625 -1.9375 "/></g></g></g><g fill="#000000" fill-opacity="1"><g transform="translate(171.738292, 161.918925)"><g><path d="M 21.796875 -9.609375 L 22.3125 -9.03125 C 20.332031 -7.820312 18.71875 -6.804688 17.46875 -5.984375 C 16.226562 -5.171875 15.285156 -4.765625 14.640625 -4.765625 C 13.691406 -4.765625 13.21875 -5.175781 13.21875 -6 C 13.21875 -6.601562 13.550781 -7.796875 14.21875 -9.578125 C 14.882812 -11.359375 15.347656 -12.613281 15.609375 -13.34375 L 15.421875 -13.546875 C 15.242188 -13.546875 15.046875 -13.457031 14.828125 -13.28125 C 10.492188 -9.800781 7.691406 -7.457031 6.421875 -6.25 C 5.148438 -5.050781 3.921875 -3.765625 2.734375 -2.390625 C 1.554688 -1.015625 0.910156 -0.257812 0.796875 -0.125 C 0.691406 0 0.617188 0.0820312 0.578125 0.125 C 0.453125 0.257812 0.015625 0.328125 -0.734375 0.328125 C -1.492188 0.328125 -1.875 0.257812 -1.875 0.125 C -1.78125 0 -1.242188 -0.597656 -0.265625 -1.671875 C 2.148438 -4.296875 4.320312 -6.8125 6.25 -9.21875 L 4.390625 -8.125 C 2.410156 -6.925781 0.96875 -6.023438 0.0625 -5.421875 L -0.1875 -6.125 L 3.875 -8.703125 C 5.332031 -9.648438 6.585938 -10.640625 7.640625 -11.671875 C 8.691406 -12.703125 9.410156 -13.539062 9.796875 -14.1875 C 10.191406 -14.832031 10.535156 -15.367188 10.828125 -15.796875 C 11.128906 -16.234375 11.410156 -16.453125 11.671875 -16.453125 C 11.929688 -16.453125 12.34375 -16.300781 12.90625 -16 C 12.90625 -15.5625 12.5625 -14.804688 11.875 -13.734375 C 11.1875 -12.660156 10.492188 -11.695312 9.796875 -10.84375 L 8.765625 -9.609375 C 8.765625 -9.523438 8.789062 -9.484375 8.84375 -9.484375 C 8.96875 -9.484375 9.113281 -9.554688 9.28125 -9.703125 C 9.457031 -9.859375 10.175781 -10.460938 11.4375 -11.515625 C 12.707031 -12.566406 13.816406 -13.46875 14.765625 -14.21875 C 15.710938 -14.96875 16.796875 -15.6875 18.015625 -16.375 C 19.242188 -17.070312 20.140625 -17.421875 20.703125 -17.421875 C 21.265625 -17.421875 21.546875 -17.289062 21.546875 -17.03125 C 21.546875 -16.6875 20.488281 -15.953125 18.375 -14.828125 C 17.90625 -14.578125 17.1875 -13.34375 16.21875 -11.125 C 15.25 -8.90625 14.765625 -7.28125 14.765625 -6.25 C 14.765625 -6.039062 14.96875 -5.9375 15.375 -5.9375 C 15.789062 -5.9375 16.597656 -6.320312 17.796875 -7.09375 Z M 21.796875 -9.609375 "/></g></g></g><g fill="#000000" fill-opacity="1"><g transform="translate(188.184128, 161.918925)"><g><path d="M 11.03125 -7.609375 C 11.757812 -8.171875 13.175781 -9.65625 15.28125 -12.0625 C 17.394531 -14.46875 18.453125 -15.863281 18.453125 -16.25 C 18.453125 -16.425781 18.28125 -16.515625 17.9375 -16.515625 C 14.875 -16.515625 11.382812 -14.71875 7.46875 -11.125 C 3.5625 -7.53125 1.609375 -4.46875 1.609375 -1.9375 C 1.609375 -1.675781 1.738281 -1.546875 2 -1.546875 C 2.257812 -1.546875 2.675781 -1.707031 3.25 -2.03125 C 3.832031 -2.351562 4.539062 -2.800781 5.375 -3.375 C 6.21875 -3.957031 6.921875 -4.46875 7.484375 -4.90625 C 9.585938 -6.445312 10.769531 -7.347656 11.03125 -7.609375 Z M -13.875 22.1875 C -13.351562 22.1875 -9.609375 18.015625 -2.640625 9.671875 L 0.84375 5.546875 C 0.84375 5.460938 0.796875 5.421875 0.703125 5.421875 C -2.210938 7.523438 -4.9375 9.679688 -7.46875 11.890625 C -10.007812 14.109375 -11.742188 15.96875 -12.671875 17.46875 C -13.597656 18.976562 -14.0625 20.421875 -14.0625 21.796875 C -14.0625 22.054688 -14 22.1875 -13.875 22.1875 Z M 9.09375 -0.84375 C 9.820312 -0.84375 12.851562 -2.539062 18.1875 -5.9375 L 20.890625 -7.609375 L 20.96875 -6.84375 C 18.207031 -4.945312 15.625 -3.351562 13.21875 -2.0625 L 7.359375 0.96875 C 3.953125 5.570312 -0.296875 10.503906 -5.390625 15.765625 C -10.484375 21.035156 -13.476562 23.671875 -14.375 23.671875 C -15.28125 23.671875 -15.734375 23.367188 -15.734375 22.765625 C -15.734375 19.628906 -13.367188 16 -8.640625 11.875 C -6.921875 10.363281 -4.726562 8.628906 -2.0625 6.671875 C 0.601562 4.710938 2.238281 3.5 2.84375 3.03125 C 3.832031 1.820312 4.863281 0.578125 5.9375 -0.703125 C 8.257812 -3.410156 9.503906 -4.894531 9.671875 -5.15625 C 9.671875 -5.238281 9.59375 -5.28125 9.4375 -5.28125 C 9.289062 -5.28125 8.035156 -4.421875 5.671875 -2.703125 C 3.347656 -0.984375 1.832031 -0.125 1.125 -0.125 C 0.414062 -0.125 0.0625 -0.769531 0.0625 -2.0625 C 0.0625 -5.632812 2.09375 -9.117188 6.15625 -12.515625 C 10.21875 -15.910156 15.109375 -17.609375 20.828125 -17.609375 C 21.304688 -17.609375 21.546875 -17.347656 21.546875 -16.828125 C 13.671875 -6.941406 9.519531 -1.613281 9.09375 -0.84375 Z M 9.09375 -0.84375 "/></g></g></g><g fill="#000000" fill-opacity="1"><g transform="translate(206.887233, 161.918925)"><g><path d="M 21.21875 -7.671875 L 21.28125 -6.84375 C 14.363281 -2.238281 10.148438 0.0625 8.640625 0.0625 C 8.378906 0.0625 8.25 -0.0859375 8.25 -0.390625 C 8.25 -1.285156 8.59375 -2.570312 9.28125 -4.25 L 9.609375 -5.15625 C 9.609375 -5.238281 9.53125 -5.28125 9.375 -5.28125 C 9.226562 -5.28125 7.972656 -4.421875 5.609375 -2.703125 C 3.285156 -0.984375 1.769531 -0.125 1.0625 -0.125 C 0.351562 -0.125 0 -0.769531 0 -2.0625 C 0 -5.632812 2.03125 -9.117188 6.09375 -12.515625 C 10.15625 -15.910156 15.046875 -17.609375 20.765625 -17.609375 C 21.285156 -17.609375 21.546875 -17.390625 21.546875 -16.953125 C 21.546875 -16.523438 19.523438 -14.019531 15.484375 -9.4375 C 11.441406 -4.863281 9.421875 -2.101562 9.421875 -1.15625 C 9.421875 -0.988281 9.546875 -0.90625 9.796875 -0.90625 C 10.054688 -0.90625 11.15625 -1.460938 13.09375 -2.578125 C 15.03125 -3.691406 16.859375 -4.8125 18.578125 -5.9375 Z M 10.96875 -7.609375 C 11.695312 -8.171875 13.113281 -9.65625 15.21875 -12.0625 C 17.320312 -14.46875 18.375 -15.863281 18.375 -16.25 C 18.375 -16.425781 18.203125 -16.515625 17.859375 -16.515625 C 15.890625 -16.515625 13.59375 -15.597656 10.96875 -13.765625 C 8.34375 -11.941406 6.113281 -9.867188 4.28125 -7.546875 C 2.457031 -5.222656 1.546875 -3.351562 1.546875 -1.9375 C 1.546875 -1.675781 1.675781 -1.546875 1.9375 -1.546875 C 2.195312 -1.546875 2.613281 -1.707031 3.1875 -2.03125 C 3.769531 -2.351562 4.476562 -2.800781 5.3125 -3.375 C 6.15625 -3.957031 6.878906 -4.46875 7.484375 -4.90625 C 9.546875 -6.445312 10.707031 -7.347656 10.96875 -7.609375 Z M 10.96875 -7.609375 "/></g></g></g><g fill="#000000" fill-opacity="1"><g transform="translate(225.912807, 161.918925)"><g><path d="M 1.421875 -6.328125 L 1.21875 -7.09375 L 3.359375 -8.453125 C 6.578125 -10.597656 8.59375 -12.109375 9.40625 -12.984375 C 10.226562 -13.867188 10.726562 -14.421875 10.90625 -14.640625 C 12.019531 -16.054688 12.640625 -16.851562 12.765625 -17.03125 C 13.285156 -16.851562 13.546875 -16.335938 13.546875 -15.484375 C 12.679688 -14.234375 11.519531 -12.738281 10.0625 -11 C 8.601562 -9.257812 7.398438 -7.816406 6.453125 -6.671875 C 5.503906 -5.535156 5.03125 -4.878906 5.03125 -4.703125 C 5.03125 -4.535156 5.0625 -4.453125 5.125 -4.453125 C 5.1875 -4.453125 5.507812 -4.675781 6.09375 -5.125 C 6.675781 -5.582031 8.257812 -6.710938 10.84375 -8.515625 C 16.039062 -12.128906 19.347656 -14.414062 20.765625 -15.375 C 22.179688 -16.34375 23.09375 -16.828125 23.5 -16.828125 C 23.914062 -16.828125 24.125 -16.40625 24.125 -15.5625 C 24.125 -14.726562 23.476562 -13.472656 22.1875 -11.796875 C 20.894531 -10.117188 19.476562 -8.570312 17.9375 -7.15625 C 13.800781 -3.375 11.734375 -1.289062 11.734375 -0.90625 C 11.734375 -0.863281 11.820312 -0.84375 12 -0.84375 C 12.507812 -0.84375 15.410156 -2.539062 20.703125 -5.9375 L 23.34375 -7.671875 L 23.40625 -6.84375 C 16.488281 -2.238281 12.273438 0.0625 10.765625 0.0625 C 10.515625 0.0625 10.390625 -0.0664062 10.390625 -0.328125 C 10.390625 -1.910156 11.390625 -3.785156 13.390625 -5.953125 C 15.390625 -8.128906 17.375 -10.085938 19.34375 -11.828125 C 21.320312 -13.578125 22.3125 -14.726562 22.3125 -15.28125 C 22.3125 -15.375 22.269531 -15.421875 22.1875 -15.421875 C 20.9375 -14.816406 18.039062 -12.910156 13.5 -9.703125 C 8.96875 -6.503906 6.316406 -4.625 5.546875 -4.0625 C 3.523438 -2.5625 2.457031 -1.773438 2.34375 -1.703125 C 2.238281 -1.640625 2.015625 -1.414062 1.671875 -1.03125 C 0.898438 -0.21875 0.191406 0.1875 -0.453125 0.1875 C -1.484375 0.101562 -2.019531 0.0390625 -2.0625 0 C -2.101562 -0.0390625 -2.125 -0.0820312 -2.125 -0.125 C -2.125 -0.164062 -1.757812 -0.578125 -1.03125 -1.359375 C -0.34375 -2.085938 0.34375 -2.816406 1.03125 -3.546875 C 3.3125 -6.085938 4.878906 -7.894531 5.734375 -8.96875 Z M 1.421875 -6.328125 "/></g></g></g><g fill="#000000" fill-opacity="1"><g transform="translate(247.066662, 161.918925)"><g><path d="M 16.25 -16.578125 C 16.25 -16.703125 16.164062 -16.765625 16 -16.765625 C 14.832031 -16.765625 13.023438 -15.753906 10.578125 -13.734375 C 8.128906 -11.710938 6 -9.5 4.1875 -7.09375 C 6.34375 -7.78125 8.890625 -9.328125 11.828125 -11.734375 C 14.773438 -14.140625 16.25 -15.753906 16.25 -16.578125 Z M 1.359375 -1.359375 C 1.359375 -0.796875 1.570312 -0.515625 2 -0.515625 C 2.519531 -0.515625 3.679688 -0.867188 5.484375 -1.578125 C 7.285156 -2.285156 8.769531 -2.984375 9.9375 -3.671875 L 16.25 -7.671875 L 16.3125 -6.84375 C 11.800781 -3.832031 8.4375 -1.914062 6.21875 -1.09375 C 4.007812 -0.28125 2.539062 0.125 1.8125 0.125 C 0.601562 0.125 0 -0.625 0 -2.125 C 0 -4.144531 0.726562 -6.164062 2.1875 -8.1875 C 3.65625 -10.207031 5.363281 -11.863281 7.3125 -13.15625 C 9.269531 -14.445312 11.160156 -15.5 12.984375 -16.3125 C 14.816406 -17.132812 16.207031 -17.546875 17.15625 -17.546875 C 18.101562 -17.546875 18.578125 -17.222656 18.578125 -16.578125 C 18.578125 -14.984375 16.691406 -13.046875 12.921875 -10.765625 C 9.160156 -8.492188 6.035156 -6.988281 3.546875 -6.25 C 2.085938 -4.144531 1.359375 -2.515625 1.359375 -1.359375 Z M 1.359375 -1.359375 "/></g></g></g><g fill="#000000" fill-opacity="1"><g transform="translate(98.662374, 97.045955)"><g/></g></g><g fill="#000000" fill-opacity="1"><g transform="translate(125.691751, 194.335819)"><g><path d="M 7.171875 0 L 1.421875 0 L 1.4375 -0.234375 L 1.71875 -0.234375 C 2.125 -0.234375 2.472656 -0.375 2.765625 -0.65625 C 3.054688 -0.9375 3.210938 -1.285156 3.234375 -1.703125 L 3.234375 -14.8125 C 3.234375 -15.21875 3.082031 -15.5625 2.78125 -15.84375 C 2.476562 -16.125 2.125 -16.265625 1.71875 -16.265625 L 1.4375 -16.265625 L 1.421875 -16.5 L 6.109375 -16.5 C 7.722656 -16.5 8.976562 -16.140625 9.875 -15.421875 C 10.769531 -14.710938 11.21875 -13.757812 11.21875 -12.5625 C 11.21875 -11.625 10.96875 -10.84375 10.46875 -10.21875 C 9.96875 -9.601562 9.351562 -9.191406 8.625 -8.984375 C 9.875 -8.796875 10.859375 -8.285156 11.578125 -7.453125 C 12.296875 -6.617188 12.65625 -5.566406 12.65625 -4.296875 C 12.65625 -3.035156 12.171875 -2.003906 11.203125 -1.203125 C 10.242188 -0.398438 8.898438 0 7.171875 0 Z M 4.765625 -0.84375 L 7.078125 -0.84375 C 7.085938 -0.84375 7.101562 -0.84375 7.125 -0.84375 C 8.3125 -0.84375 9.234375 -1.171875 9.890625 -1.828125 C 10.554688 -2.484375 10.890625 -3.40625 10.890625 -4.59375 C 10.890625 -5.269531 10.773438 -5.863281 10.546875 -6.375 C 10.316406 -6.882812 10.03125 -7.289062 9.6875 -7.59375 C 8.78125 -8.34375 7.414062 -8.71875 5.59375 -8.71875 C 5.59375 -8.71875 5.582031 -8.71875 5.5625 -8.71875 L 5.5625 -8.9375 C 5.582031 -8.9375 5.65625 -8.9375 5.78125 -8.9375 C 5.914062 -8.9375 6.109375 -8.953125 6.359375 -8.984375 C 6.617188 -9.015625 6.90625 -9.066406 7.21875 -9.140625 C 7.53125 -9.222656 7.8125 -9.347656 8.0625 -9.515625 C 8.3125 -9.691406 8.546875 -9.898438 8.765625 -10.140625 C 9.222656 -10.660156 9.453125 -11.429688 9.453125 -12.453125 C 9.453125 -13.484375 9.15625 -14.289062 8.5625 -14.875 C 7.976562 -15.457031 7.128906 -15.75 6.015625 -15.75 L 4.765625 -15.75 Z M 4.765625 -0.84375 "/></g></g></g><g fill="#000000" fill-opacity="1"><g transform="translate(141.397563, 194.335819)"><g><path d="M 1.71875 -0.234375 C 2.125 -0.234375 2.472656 -0.378906 2.765625 -0.671875 C 3.054688 -0.960938 3.210938 -1.3125 3.234375 -1.71875 L 3.234375 -14.921875 C 3.179688 -15.296875 3.015625 -15.613281 2.734375 -15.875 C 2.453125 -16.132812 2.113281 -16.265625 1.71875 -16.265625 L 1.4375 -16.265625 L 1.421875 -16.5 L 8.328125 -16.5 C 8.804688 -16.5 9.332031 -16.546875 9.90625 -16.640625 C 10.488281 -16.734375 10.894531 -16.828125 11.125 -16.921875 L 11.125 -13.953125 L 10.890625 -13.953125 L 10.890625 -14.375 C 10.890625 -14.757812 10.757812 -15.082031 10.5 -15.34375 C 10.238281 -15.613281 9.929688 -15.757812 9.578125 -15.78125 L 4.765625 -15.78125 L 4.765625 -8.484375 L 8.75 -8.484375 C 9.0625 -8.503906 9.328125 -8.625 9.546875 -8.84375 C 9.765625 -9.0625 9.875 -9.335938 9.875 -9.671875 L 9.875 -10 L 10.109375 -10 L 10.109375 -6.265625 L 9.875 -6.265625 L 9.875 -6.625 C 9.875 -6.9375 9.769531 -7.203125 9.5625 -7.421875 C 9.351562 -7.640625 9.085938 -7.757812 8.765625 -7.78125 L 4.765625 -7.78125 L 4.765625 -0.734375 L 8.140625 -0.734375 C 9.296875 -0.734375 10.179688 -0.988281 10.796875 -1.5 C 11.410156 -2.019531 11.921875 -2.789062 12.328125 -3.8125 L 12.5625 -3.8125 L 11.203125 0 L 1.421875 0 L 1.421875 -0.234375 Z M 1.71875 -0.234375 "/></g></g></g><g fill="#000000" fill-opacity="1"><g transform="translate(156.891134, 194.335819)"><g><path d="M 6.265625 -15.78125 L 4.765625 -15.78125 L 4.765625 -1.71875 C 4.765625 -1.3125 4.910156 -0.960938 5.203125 -0.671875 C 5.492188 -0.378906 5.847656 -0.234375 6.265625 -0.234375 L 6.5625 -0.234375 L 6.578125 0 L 1.421875 0 L 1.421875 -0.234375 L 1.71875 -0.234375 C 2.125 -0.234375 2.472656 -0.375 2.765625 -0.65625 C 3.054688 -0.9375 3.210938 -1.285156 3.234375 -1.703125 L 3.234375 -14.78125 C 3.210938 -15.1875 3.054688 -15.535156 2.765625 -15.828125 C 2.472656 -16.117188 2.125 -16.265625 1.71875 -16.265625 L 1.421875 -16.265625 L 1.421875 -16.5 L 7.78125 -16.5 C 9.207031 -16.5 10.328125 -16.101562 11.140625 -15.3125 C 11.960938 -14.519531 12.375 -13.488281 12.375 -12.21875 C 12.375 -10.957031 11.984375 -9.863281 11.203125 -8.9375 C 10.429688 -8.019531 9.488281 -7.5625 8.375 -7.5625 C 8.601562 -7.457031 8.878906 -7.242188 9.203125 -6.921875 C 9.523438 -6.597656 9.8125 -6.265625 10.0625 -5.921875 C 11.414062 -3.984375 12.296875 -2.789062 12.703125 -2.34375 C 13.117188 -1.894531 13.410156 -1.585938 13.578125 -1.421875 C 13.753906 -1.253906 13.941406 -1.09375 14.140625 -0.9375 C 14.347656 -0.78125 14.554688 -0.65625 14.765625 -0.5625 C 15.210938 -0.34375 15.695312 -0.234375 16.21875 -0.234375 L 16.21875 0 L 14.921875 0 C 14.242188 0 13.613281 -0.117188 13.03125 -0.359375 C 12.457031 -0.609375 12.023438 -0.863281 11.734375 -1.125 C 11.441406 -1.382812 11.1875 -1.632812 10.96875 -1.875 C 10.757812 -2.113281 10.175781 -2.925781 9.21875 -4.3125 C 8.257812 -5.695312 7.703125 -6.488281 7.546875 -6.6875 C 7.390625 -6.882812 7.222656 -7.078125 7.046875 -7.265625 C 6.546875 -7.796875 6.046875 -8.0625 5.546875 -8.0625 L 5.546875 -8.296875 C 5.671875 -8.285156 5.832031 -8.28125 6.03125 -8.28125 C 6.238281 -8.28125 6.492188 -8.285156 6.796875 -8.296875 C 8.742188 -8.347656 9.96875 -9.164062 10.46875 -10.75 C 10.5625 -11.0625 10.609375 -11.351562 10.609375 -11.625 C 10.609375 -11.90625 10.609375 -12.085938 10.609375 -12.171875 C 10.578125 -13.222656 10.300781 -14.066406 9.78125 -14.703125 C 9.257812 -15.347656 8.5625 -15.695312 7.6875 -15.75 C 7.3125 -15.769531 6.835938 -15.78125 6.265625 -15.78125 Z M 6.265625 -15.78125 "/></g></g></g><g fill="#000000" fill-opacity="1"><g transform="translate(174.742918, 194.335819)"><g><path d="M 13.890625 -14.40625 C 13.890625 -14.78125 13.753906 -15.101562 13.484375 -15.375 C 13.210938 -15.65625 12.898438 -15.804688 12.546875 -15.828125 L 8.0625 -15.828125 L 8.0625 -1.703125 C 8.082031 -1.285156 8.234375 -0.9375 8.515625 -0.65625 C 8.804688 -0.375 9.160156 -0.234375 9.578125 -0.234375 L 9.875 -0.234375 L 9.875 0 L 4.71875 0 L 4.71875 -0.234375 L 5.015625 -0.234375 C 5.429688 -0.234375 5.78125 -0.375 6.0625 -0.65625 C 6.351562 -0.9375 6.507812 -1.273438 6.53125 -1.671875 L 6.53125 -15.828125 L 2.046875 -15.828125 C 1.671875 -15.804688 1.351562 -15.65625 1.09375 -15.375 C 0.832031 -15.101562 0.703125 -14.78125 0.703125 -14.40625 L 0.703125 -14 L 0.46875 -13.984375 L 0.46875 -16.953125 C 0.707031 -16.859375 1.113281 -16.765625 1.6875 -16.671875 C 2.269531 -16.578125 2.804688 -16.53125 3.296875 -16.53125 L 11.265625 -16.53125 C 12.035156 -16.53125 12.675781 -16.585938 13.1875 -16.703125 C 13.695312 -16.816406 14.007812 -16.898438 14.125 -16.953125 L 14.125 -13.984375 L 13.890625 -14 Z M 13.890625 -14.40625 "/></g></g></g><g fill="#000000" fill-opacity="1"><g transform="translate(191.203358, 194.335819)"><g><path d="M 16.890625 -0.234375 L 17.078125 -0.234375 L 17.078125 0 L 11.765625 0 L 11.765625 -0.234375 L 11.984375 -0.234375 C 12.316406 -0.234375 12.5625 -0.335938 12.71875 -0.546875 C 12.882812 -0.765625 12.96875 -0.96875 12.96875 -1.15625 C 12.96875 -1.34375 12.9375 -1.53125 12.875 -1.71875 L 11.375 -5.734375 L 5 -5.734375 L 3.421875 -1.703125 C 3.359375 -1.515625 3.328125 -1.328125 3.328125 -1.140625 C 3.328125 -0.960938 3.410156 -0.765625 3.578125 -0.546875 C 3.742188 -0.335938 3.992188 -0.234375 4.328125 -0.234375 L 4.53125 -0.234375 L 4.53125 0 L -0.203125 0 L -0.203125 -0.234375 L 0 -0.234375 C 0.394531 -0.234375 0.78125 -0.359375 1.15625 -0.609375 C 1.539062 -0.859375 1.847656 -1.226562 2.078125 -1.71875 L 7.40625 -14.40625 C 7.988281 -15.675781 8.28125 -16.484375 8.28125 -16.828125 L 8.5 -16.828125 L 14.8125 -1.71875 C 15.03125 -1.226562 15.328125 -0.859375 15.703125 -0.609375 C 16.085938 -0.359375 16.484375 -0.234375 16.890625 -0.234375 Z M 5.296875 -6.4375 L 11.09375 -6.4375 L 8.265625 -14 Z M 5.296875 -6.4375 "/></g></g></g><g fill="#000000" fill-opacity="1"><g transform="translate(209.88052, 194.335819)"><g><path d="M 17.328125 -16.265625 L 16.953125 -16.265625 C 16.617188 -16.265625 16.332031 -16.15625 16.09375 -15.9375 C 15.851562 -15.726562 15.722656 -15.46875 15.703125 -15.15625 L 15.703125 -5.828125 C 15.703125 -3.984375 15.117188 -2.492188 13.953125 -1.359375 C 12.796875 -0.234375 11.25 0.328125 9.3125 0.328125 C 7.375 0.328125 5.804688 -0.234375 4.609375 -1.359375 C 3.410156 -2.484375 2.8125 -3.960938 2.8125 -5.796875 L 2.8125 -15.09375 C 2.8125 -15.5625 2.601562 -15.90625 2.1875 -16.125 C 2 -16.21875 1.789062 -16.265625 1.5625 -16.265625 L 1.171875 -16.265625 L 1.171875 -16.5 L 5.96875 -16.5 L 5.96875 -16.265625 L 5.59375 -16.265625 C 5.238281 -16.265625 4.941406 -16.15625 4.703125 -15.9375 C 4.472656 -15.726562 4.351562 -15.460938 4.34375 -15.140625 L 4.34375 -6.125 C 4.34375 -4.414062 4.800781 -3.035156 5.71875 -1.984375 C 6.632812 -0.929688 7.863281 -0.40625 9.40625 -0.40625 C 10.945312 -0.40625 12.195312 -0.898438 13.15625 -1.890625 C 14.113281 -2.890625 14.59375 -4.203125 14.59375 -5.828125 L 14.59375 -15.140625 C 14.582031 -15.460938 14.457031 -15.726562 14.21875 -15.9375 C 13.976562 -16.15625 13.6875 -16.265625 13.34375 -16.265625 L 12.96875 -16.265625 L 12.96875 -16.5 L 17.328125 -16.5 Z M 17.328125 -16.265625 "/></g></g></g><g fill="#000000" fill-opacity="1"><g transform="translate(230.279172, 194.335819)"><g><path d="M 9.40625 -16.5 C 11.925781 -16.5 13.96875 -15.738281 15.53125 -14.21875 C 17.09375 -12.707031 17.875 -10.71875 17.875 -8.25 C 17.875 -5.78125 17.09375 -3.785156 15.53125 -2.265625 C 13.96875 -0.753906 11.925781 0 9.40625 0 L 1.421875 0 L 1.421875 -0.234375 L 1.71875 -0.234375 C 2.125 -0.234375 2.472656 -0.378906 2.765625 -0.671875 C 3.054688 -0.960938 3.210938 -1.3125 3.234375 -1.71875 L 3.234375 -14.921875 C 3.234375 -15.296875 3.078125 -15.613281 2.765625 -15.875 C 2.460938 -16.132812 2.113281 -16.265625 1.71875 -16.265625 L 1.4375 -16.265625 L 1.421875 -16.5 Z M 4.765625 -15.796875 L 4.765625 -0.703125 L 9.40625 -0.703125 C 10.726562 -0.703125 11.894531 -1.015625 12.90625 -1.640625 C 13.925781 -2.273438 14.710938 -3.160156 15.265625 -4.296875 C 15.828125 -5.441406 16.109375 -6.757812 16.109375 -8.25 C 16.109375 -10.507812 15.488281 -12.332031 14.25 -13.71875 C 13.019531 -15.101562 11.40625 -15.796875 9.40625 -15.796875 Z M 4.765625 -15.796875 "/></g></g></g><g fill="#000000" fill-opacity="1"><g transform="translate(93.117197, 224.698412)"><g><path d="M 4.742188 -9.90625 C 7.304688 -9.90625 8.476562 -7.933594 8.476562 -5.375 C 8.476562 -2.816406 7.304688 -0.632812 4.742188 -0.632812 L 3.433594 -0.632812 L 3.433594 -9.90625 Z M 4.699219 0 C 8.476562 0 10.238281 -2.425781 10.238281 -5.34375 C 10.238281 -8.265625 8.507812 -10.539062 4.742188 -10.539062 L 0.632812 -10.539062 L 0.527344 -9.90625 L 1.835938 -9.410156 L 1.835938 -1.128906 L 0.542969 -0.632812 L 0.648438 0 Z M 4.699219 0 "/></g></g></g><g fill="#000000" fill-opacity="1"><g transform="translate(103.808154, 224.698412)"><g><path d="M 2.167969 -10.496094 C 1.714844 -10.496094 1.355469 -10.132812 1.355469 -9.683594 C 1.355469 -9.230469 1.714844 -8.867188 2.167969 -8.867188 C 2.605469 -8.867188 2.980469 -9.230469 2.980469 -9.683594 C 2.980469 -10.132812 2.605469 -10.496094 2.167969 -10.496094 Z M 2.921875 -6.488281 C 2.921875 -6.488281 2.9375 -7.199219 2.109375 -7.199219 C 1.609375 -7.199219 0.949219 -7.09375 0.601562 -7.03125 L 0.601562 -6.488281 L 1.503906 -6.488281 L 1.503906 0 L 2.921875 0 Z M 2.921875 -6.488281 "/></g></g></g><g fill="#000000" fill-opacity="1"><g transform="translate(107.994192, 224.698412)"><g><path d="M 7.136719 -5.074219 C 7.136719 -6.625 5.960938 -7.199219 4.214844 -7.199219 C 2.109375 -7.199219 0.601562 -5.84375 0.601562 -3.523438 C 0.601562 -1.296875 1.851562 0.164062 4.515625 0.164062 C 5.496094 0.164062 6.460938 -0.136719 7.105469 -0.722656 L 6.761719 -1.21875 C 6.144531 -0.828125 5.40625 -0.542969 4.609375 -0.542969 C 3.238281 -0.542969 2.46875 -1.460938 2.257812 -2.832031 C 4.804688 -2.832031 7.136719 -3.238281 7.136719 -5.074219 Z M 2.199219 -3.644531 C 2.199219 -5.359375 2.859375 -6.640625 4.15625 -6.640625 C 5.195312 -6.640625 5.722656 -6.203125 5.722656 -5.253906 C 5.722656 -4.140625 4.171875 -3.371094 2.199219 -3.359375 Z M 3.597656 -8.65625 L 3.898438 -8.507812 L 5.960938 -10.917969 L 4.621094 -11.066406 Z M 3.597656 -8.65625 "/></g></g></g><g fill="#000000" fill-opacity="1"><g transform="translate(115.794073, 224.698412)"><g><path d="M 2.542969 -8.777344 L 1.851562 -8.945312 L 1.21875 -7.363281 L 0.152344 -7.03125 L 0.257812 -6.488281 L 1.128906 -6.488281 L 1.128906 -1.777344 C 1.128906 -0.675781 1.730469 0.164062 3.117188 0.164062 C 3.976562 0.164062 4.410156 -0.179688 4.910156 -0.707031 L 4.5625 -1.113281 C 4.246094 -0.769531 3.914062 -0.542969 3.371094 -0.542969 C 2.921875 -0.542969 2.542969 -0.949219 2.542969 -1.65625 L 2.542969 -6.488281 L 4.410156 -6.488281 L 4.515625 -7.03125 L 2.542969 -7.03125 Z M 2.542969 -8.777344 "/></g></g></g><g fill="#000000" fill-opacity="1"><g transform="translate(120.702878, 224.698412)"><g><path d="M 7.136719 -5.074219 C 7.136719 -6.625 5.960938 -7.199219 4.214844 -7.199219 C 2.109375 -7.199219 0.601562 -5.84375 0.601562 -3.523438 C 0.601562 -1.296875 1.851562 0.164062 4.515625 0.164062 C 5.496094 0.164062 6.460938 -0.136719 7.105469 -0.722656 L 6.761719 -1.21875 C 6.144531 -0.828125 5.40625 -0.542969 4.609375 -0.542969 C 3.238281 -0.542969 2.46875 -1.460938 2.257812 -2.832031 C 4.804688 -2.832031 7.136719 -3.238281 7.136719 -5.074219 Z M 2.199219 -3.644531 C 2.199219 -5.359375 2.859375 -6.640625 4.15625 -6.640625 C 5.195312 -6.640625 5.722656 -6.203125 5.722656 -5.253906 C 5.722656 -4.140625 4.171875 -3.371094 2.199219 -3.359375 Z M 3.597656 -8.65625 L 3.898438 -8.507812 L 5.960938 -10.917969 L 4.621094 -11.066406 Z M 3.597656 -8.65625 "/></g></g></g><g fill="#000000" fill-opacity="1"><g transform="translate(128.502759, 224.698412)"><g><path d="M 2.542969 -8.777344 L 1.851562 -8.945312 L 1.21875 -7.363281 L 0.152344 -7.03125 L 0.257812 -6.488281 L 1.128906 -6.488281 L 1.128906 -1.777344 C 1.128906 -0.675781 1.730469 0.164062 3.117188 0.164062 C 3.976562 0.164062 4.410156 -0.179688 4.910156 -0.707031 L 4.5625 -1.113281 C 4.246094 -0.769531 3.914062 -0.542969 3.371094 -0.542969 C 2.921875 -0.542969 2.542969 -0.949219 2.542969 -1.65625 L 2.542969 -6.488281 L 4.410156 -6.488281 L 4.515625 -7.03125 L 2.542969 -7.03125 Z M 2.542969 -8.777344 "/></g></g></g><g fill="#000000" fill-opacity="1"><g transform="translate(133.411563, 224.698412)"><g><path d="M 2.167969 -10.496094 C 1.714844 -10.496094 1.355469 -10.132812 1.355469 -9.683594 C 1.355469 -9.230469 1.714844 -8.867188 2.167969 -8.867188 C 2.605469 -8.867188 2.980469 -9.230469 2.980469 -9.683594 C 2.980469 -10.132812 2.605469 -10.496094 2.167969 -10.496094 Z M 2.921875 -6.488281 C 2.921875 -6.488281 2.9375 -7.199219 2.109375 -7.199219 C 1.609375 -7.199219 0.949219 -7.09375 0.601562 -7.03125 L 0.601562 -6.488281 L 1.503906 -6.488281 L 1.503906 0 L 2.921875 0 Z M 2.921875 -6.488281 "/></g></g></g><g fill="#000000" fill-opacity="1"><g transform="translate(137.597602, 224.698412)"><g><path d="M 5.765625 -5.226562 C 6.1875 -5.226562 6.535156 -5.570312 6.535156 -5.976562 C 6.535156 -6.820312 5.449219 -7.199219 4.335938 -7.199219 C 1.988281 -7.199219 0.464844 -5.84375 0.464844 -3.507812 C 0.464844 -1.28125 1.640625 0.164062 4.304688 0.164062 C 5.285156 0.164062 6.082031 -0.136719 6.730469 -0.722656 L 6.382812 -1.21875 C 5.765625 -0.828125 5.179688 -0.542969 4.398438 -0.542969 C 2.515625 -0.542969 2.046875 -2.003906 2.046875 -3.808594 C 2.046875 -5.585938 2.875 -6.640625 4.382812 -6.640625 C 4.804688 -6.640625 5.027344 -6.566406 5.300781 -6.460938 Z M 5.765625 -5.226562 "/></g></g></g><g fill="#000000" fill-opacity="1"><g transform="translate(144.659661, 224.698412)"><g><path d="M 2.167969 -10.496094 C 1.714844 -10.496094 1.355469 -10.132812 1.355469 -9.683594 C 1.355469 -9.230469 1.714844 -8.867188 2.167969 -8.867188 C 2.605469 -8.867188 2.980469 -9.230469 2.980469 -9.683594 C 2.980469 -10.132812 2.605469 -10.496094 2.167969 -10.496094 Z M 2.921875 -6.488281 C 2.921875 -6.488281 2.9375 -7.199219 2.109375 -7.199219 C 1.609375 -7.199219 0.949219 -7.09375 0.601562 -7.03125 L 0.601562 -6.488281 L 1.503906 -6.488281 L 1.503906 0 L 2.921875 0 Z M 2.921875 -6.488281 "/></g></g></g><g fill="#000000" fill-opacity="1"><g transform="translate(148.8457, 224.698412)"><g><path d="M 7.0625 -5.074219 C 7.0625 -6.625 5.886719 -7.199219 4.140625 -7.199219 C 2.03125 -7.199219 0.527344 -5.84375 0.527344 -3.523438 C 0.527344 -1.296875 1.777344 0.164062 4.441406 0.164062 C 5.421875 0.164062 6.382812 -0.136719 7.03125 -0.722656 L 6.6875 -1.21875 C 6.066406 -0.828125 5.332031 -0.542969 4.53125 -0.542969 C 3.164062 -0.542969 2.394531 -1.460938 2.183594 -2.832031 C 4.726562 -2.832031 7.0625 -3.238281 7.0625 -5.074219 Z M 2.125 -3.644531 C 2.125 -5.359375 2.785156 -6.640625 4.082031 -6.640625 C 5.121094 -6.640625 5.648438 -6.203125 5.648438 -5.253906 C 5.648438 -4.140625 4.09375 -3.371094 2.125 -3.359375 Z M 2.125 -3.644531 "/></g></g></g><g fill="#000000" fill-opacity="1"><g transform="translate(156.359486, 224.698412)"><g><path d="M 2.847656 -6.488281 C 2.847656 -6.488281 2.859375 -7.199219 2.03125 -7.199219 C 1.535156 -7.199219 0.875 -7.09375 0.527344 -7.03125 L 0.527344 -6.488281 L 1.429688 -6.488281 L 1.429688 0 L 2.847656 0 L 2.847656 -3.34375 C 2.847656 -5.570312 3.960938 -6.488281 4.726562 -6.488281 C 5.480469 -6.488281 5.949219 -5.859375 5.949219 -4.894531 L 5.949219 -1.203125 C 5.949219 -0.152344 6.6875 0.164062 7.242188 0.164062 C 7.648438 0.164062 8.039062 0.105469 8.25 0 L 8.25 -0.542969 C 7.785156 -0.542969 7.363281 -0.769531 7.363281 -1.234375 L 7.363281 -4.515625 C 7.363281 -6.171875 6.671875 -7.199219 5.027344 -7.199219 C 4.246094 -7.199219 3.222656 -6.503906 2.847656 -5.449219 Z M 2.847656 -6.488281 "/></g></g></g><g fill="#000000" fill-opacity="1"><g transform="translate(165.138121, 224.698412)"><g><path d="M 2.847656 -6.488281 C 2.847656 -6.488281 2.859375 -7.199219 2.03125 -7.199219 C 1.535156 -7.199219 0.875 -7.09375 0.527344 -7.03125 L 0.527344 -6.488281 L 1.429688 -6.488281 L 1.429688 0 L 2.847656 0 L 2.847656 -3.34375 C 2.847656 -5.570312 3.960938 -6.488281 4.726562 -6.488281 C 5.480469 -6.488281 5.949219 -5.859375 5.949219 -4.894531 L 5.949219 -1.203125 C 5.949219 -0.152344 6.6875 0.164062 7.242188 0.164062 C 7.648438 0.164062 8.039062 0.105469 8.25 0 L 8.25 -0.542969 C 7.785156 -0.542969 7.363281 -0.769531 7.363281 -1.234375 L 7.363281 -4.515625 C 7.363281 -6.171875 6.671875 -7.199219 5.027344 -7.199219 C 4.246094 -7.199219 3.222656 -6.503906 2.847656 -5.449219 Z M 2.847656 -6.488281 "/></g></g></g><g fill="#000000" fill-opacity="1"><g transform="translate(173.916757, 224.698412)"><g><path d="M 7.0625 -5.074219 C 7.0625 -6.625 5.886719 -7.199219 4.140625 -7.199219 C 2.03125 -7.199219 0.527344 -5.84375 0.527344 -3.523438 C 0.527344 -1.296875 1.777344 0.164062 4.441406 0.164062 C 5.421875 0.164062 6.382812 -0.136719 7.03125 -0.722656 L 6.6875 -1.21875 C 6.066406 -0.828125 5.332031 -0.542969 4.53125 -0.542969 C 3.164062 -0.542969 2.394531 -1.460938 2.183594 -2.832031 C 4.726562 -2.832031 7.0625 -3.238281 7.0625 -5.074219 Z M 2.125 -3.644531 C 2.125 -5.359375 2.785156 -6.640625 4.082031 -6.640625 C 5.121094 -6.640625 5.648438 -6.203125 5.648438 -5.253906 C 5.648438 -4.140625 4.09375 -3.371094 2.125 -3.359375 Z M 2.125 -3.644531 "/></g></g></g><g fill="#000000" fill-opacity="1"><g transform="translate(181.430543, 224.698412)"><g/></g></g><g fill="#000000" fill-opacity="1"><g transform="translate(185.194967, 224.698412)"><g><path d="M 2.847656 -6.488281 C 2.847656 -6.488281 2.859375 -7.199219 2.03125 -7.199219 C 1.535156 -7.199219 0.875 -7.09375 0.527344 -7.03125 L 0.527344 -6.488281 L 1.429688 -6.488281 L 1.429688 0 L 2.847656 0 L 2.847656 -3.34375 C 2.847656 -5.570312 3.960938 -6.488281 4.726562 -6.488281 C 5.480469 -6.488281 5.949219 -5.859375 5.949219 -4.894531 L 5.949219 -1.203125 C 5.949219 -0.152344 6.6875 0.164062 7.242188 0.164062 C 7.648438 0.164062 8.039062 0.105469 8.25 0 L 8.25 -0.542969 C 7.785156 -0.542969 7.363281 -0.769531 7.363281 -1.234375 L 7.363281 -4.515625 C 7.363281 -6.171875 6.671875 -7.199219 5.027344 -7.199219 C 4.246094 -7.199219 3.222656 -6.503906 2.847656 -5.449219 Z M 2.847656 -6.488281 "/></g></g></g><g fill="#000000" fill-opacity="1"><g transform="translate(193.973603, 224.698412)"><g><path d="M 4.125 -0.40625 C 3.222656 -0.40625 2.648438 -1.085938 2.648438 -2.230469 L 2.648438 -6.488281 C 2.648438 -6.488281 2.664062 -7.199219 1.835938 -7.199219 C 1.339844 -7.199219 0.796875 -7.078125 0.453125 -7.03125 L 0.453125 -6.488281 L 1.234375 -6.488281 L 1.234375 -2.53125 C 1.234375 -0.722656 2.167969 0.164062 3.808594 0.164062 C 4.578125 0.164062 5.316406 -0.257812 5.738281 -0.964844 C 5.949219 -0.121094 6.625 0.164062 7.152344 0.164062 C 7.4375 0.164062 7.738281 0.121094 7.980469 0 L 7.980469 -0.542969 C 7.515625 -0.542969 7.09375 -0.769531 7.09375 -1.234375 L 7.09375 -7.03125 L 6.566406 -7.199219 L 5.675781 -7.03125 L 5.675781 -2.980469 C 5.675781 -1.265625 4.804688 -0.40625 4.125 -0.40625 Z M 4.125 -0.40625 "/></g></g></g><g fill="#000000" fill-opacity="1"><g transform="translate(202.180042, 224.698412)"><g><path d="M 2.542969 -8.777344 L 1.851562 -8.945312 L 1.21875 -7.363281 L 0.152344 -7.03125 L 0.257812 -6.488281 L 1.128906 -6.488281 L 1.128906 -1.777344 C 1.128906 -0.675781 1.730469 0.164062 3.117188 0.164062 C 3.976562 0.164062 4.410156 -0.179688 4.910156 -0.707031 L 4.5625 -1.113281 C 4.246094 -0.769531 3.914062 -0.542969 3.371094 -0.542969 C 2.921875 -0.542969 2.542969 -0.949219 2.542969 -1.65625 L 2.542969 -6.488281 L 4.410156 -6.488281 L 4.515625 -7.03125 L 2.542969 -7.03125 Z M 2.542969 -8.777344 "/></g></g></g><g fill="#000000" fill-opacity="1"><g transform="translate(207.088847, 224.698412)"><g><path d="M 1.445312 -6.488281 L 1.445312 0 L 2.859375 0 L 2.859375 -3.34375 C 2.859375 -5.464844 4.066406 -6.488281 4.789062 -6.488281 L 5.210938 -5.527344 C 5.691406 -5.527344 6.066406 -5.871094 6.066406 -6.324219 C 6.066406 -6.777344 5.78125 -7.199219 5 -7.199219 C 4.214844 -7.199219 3.253906 -6.535156 2.859375 -5.449219 L 2.859375 -6.277344 C 2.859375 -6.277344 2.875 -7.199219 2.046875 -7.199219 C 1.550781 -7.199219 0.949219 -7.09375 0.601562 -7.03125 L 0.601562 -6.488281 Z M 1.445312 -6.488281 "/></g></g></g><g fill="#000000" fill-opacity="1"><g transform="translate(213.30767, 224.698412)"><g><path d="M 2.167969 -10.496094 C 1.714844 -10.496094 1.355469 -10.132812 1.355469 -9.683594 C 1.355469 -9.230469 1.714844 -8.867188 2.167969 -8.867188 C 2.605469 -8.867188 2.980469 -9.230469 2.980469 -9.683594 C 2.980469 -10.132812 2.605469 -10.496094 2.167969 -10.496094 Z M 2.921875 -6.488281 C 2.921875 -6.488281 2.9375 -7.199219 2.109375 -7.199219 C 1.609375 -7.199219 0.949219 -7.09375 0.601562 -7.03125 L 0.601562 -6.488281 L 1.503906 -6.488281 L 1.503906 0 L 2.921875 0 Z M 2.921875 -6.488281 "/></g></g></g><g fill="#000000" fill-opacity="1"><g transform="translate(217.493716, 224.698412)"><g><path d="M 2.542969 -8.777344 L 1.851562 -8.945312 L 1.21875 -7.363281 L 0.152344 -7.03125 L 0.257812 -6.488281 L 1.128906 -6.488281 L 1.128906 -1.777344 C 1.128906 -0.675781 1.730469 0.164062 3.117188 0.164062 C 3.976562 0.164062 4.410156 -0.179688 4.910156 -0.707031 L 4.5625 -1.113281 C 4.246094 -0.769531 3.914062 -0.542969 3.371094 -0.542969 C 2.921875 -0.542969 2.542969 -0.949219 2.542969 -1.65625 L 2.542969 -6.488281 L 4.410156 -6.488281 L 4.515625 -7.03125 L 2.542969 -7.03125 Z M 2.542969 -8.777344 "/></g></g></g><g fill="#000000" fill-opacity="1"><g transform="translate(222.402527, 224.698412)"><g><path d="M 2.167969 -10.496094 C 1.714844 -10.496094 1.355469 -10.132812 1.355469 -9.683594 C 1.355469 -9.230469 1.714844 -8.867188 2.167969 -8.867188 C 2.605469 -8.867188 2.980469 -9.230469 2.980469 -9.683594 C 2.980469 -10.132812 2.605469 -10.496094 2.167969 -10.496094 Z M 2.921875 -6.488281 C 2.921875 -6.488281 2.9375 -7.199219 2.109375 -7.199219 C 1.609375 -7.199219 0.949219 -7.09375 0.601562 -7.03125 L 0.601562 -6.488281 L 1.503906 -6.488281 L 1.503906 0 L 2.921875 0 Z M 2.921875 -6.488281 "/></g></g></g><g fill="#000000" fill-opacity="1"><g transform="translate(226.588559, 224.698412)"><g><path d="M 4.140625 -7.199219 C 1.914062 -7.199219 0.601562 -5.78125 0.601562 -3.523438 C 0.601562 -1.265625 1.761719 0.164062 4.140625 0.164062 C 6.535156 0.164062 7.679688 -1.203125 7.679688 -3.523438 C 7.679688 -5.84375 6.371094 -7.199219 4.140625 -7.199219 Z M 4.140625 -6.640625 C 5.40625 -6.640625 6.21875 -5.496094 6.21875 -3.570312 C 6.21875 -1.65625 5.421875 -0.390625 4.140625 -0.390625 C 2.859375 -0.390625 2.0625 -1.671875 2.0625 -3.570312 C 2.0625 -5.464844 2.890625 -6.640625 4.140625 -6.640625 Z M 4.140625 -6.640625 "/></g></g></g><g fill="#000000" fill-opacity="1"><g transform="translate(234.870286, 224.698412)"><g><path d="M 2.847656 -6.488281 C 2.847656 -6.488281 2.859375 -7.199219 2.03125 -7.199219 C 1.535156 -7.199219 0.875 -7.09375 0.527344 -7.03125 L 0.527344 -6.488281 L 1.429688 -6.488281 L 1.429688 0 L 2.847656 0 L 2.847656 -3.34375 C 2.847656 -5.570312 3.960938 -6.488281 4.726562 -6.488281 C 5.480469 -6.488281 5.949219 -5.859375 5.949219 -4.894531 L 5.949219 -1.203125 C 5.949219 -0.152344 6.6875 0.164062 7.242188 0.164062 C 7.648438 0.164062 8.039062 0.105469 8.25 0 L 8.25 -0.542969 C 7.785156 -0.542969 7.363281 -0.769531 7.363281 -1.234375 L 7.363281 -4.515625 C 7.363281 -6.171875 6.671875 -7.199219 5.027344 -7.199219 C 4.246094 -7.199219 3.222656 -6.503906 2.847656 -5.449219 Z M 2.847656 -6.488281 "/></g></g></g><g fill="#000000" fill-opacity="1"><g transform="translate(243.648921, 224.698412)"><g><path d="M 2.847656 -6.488281 C 2.847656 -6.488281 2.859375 -7.199219 2.03125 -7.199219 C 1.535156 -7.199219 0.875 -7.09375 0.527344 -7.03125 L 0.527344 -6.488281 L 1.429688 -6.488281 L 1.429688 0 L 2.847656 0 L 2.847656 -3.34375 C 2.847656 -5.570312 3.960938 -6.488281 4.726562 -6.488281 C 5.480469 -6.488281 5.949219 -5.859375 5.949219 -4.894531 L 5.949219 -1.203125 C 5.949219 -0.152344 6.6875 0.164062 7.242188 0.164062 C 7.648438 0.164062 8.039062 0.105469 8.25 0 L 8.25 -0.542969 C 7.785156 -0.542969 7.363281 -0.769531 7.363281 -1.234375 L 7.363281 -4.515625 C 7.363281 -6.171875 6.671875 -7.199219 5.027344 -7.199219 C 4.246094 -7.199219 3.222656 -6.503906 2.847656 -5.449219 Z M 2.847656 -6.488281 "/></g></g></g><g fill="#000000" fill-opacity="1"><g transform="translate(252.427557, 224.698412)"><g><path d="M 2.167969 -10.496094 C 1.714844 -10.496094 1.355469 -10.132812 1.355469 -9.683594 C 1.355469 -9.230469 1.714844 -8.867188 2.167969 -8.867188 C 2.605469 -8.867188 2.980469 -9.230469 2.980469 -9.683594 C 2.980469 -10.132812 2.605469 -10.496094 2.167969 -10.496094 Z M 2.921875 -6.488281 C 2.921875 -6.488281 2.9375 -7.199219 2.109375 -7.199219 C 1.609375 -7.199219 0.949219 -7.09375 0.601562 -7.03125 L 0.601562 -6.488281 L 1.503906 -6.488281 L 1.503906 0 L 2.921875 0 Z M 2.921875 -6.488281 "/></g></g></g><g fill="#000000" fill-opacity="1"><g transform="translate(256.613589, 224.698412)"><g><path d="M 3.28125 -6.640625 C 3.703125 -6.640625 4.050781 -6.566406 4.320312 -6.460938 L 4.789062 -5.226562 C 5.210938 -5.226562 5.554688 -5.570312 5.554688 -5.976562 C 5.554688 -6.820312 4.472656 -7.199219 3.359375 -7.199219 C 1.714844 -7.199219 0.648438 -6.414062 0.648438 -5.195312 C 0.648438 -4.003906 1.550781 -3.492188 2.558594 -3.027344 C 3.402344 -2.648438 4.457031 -2.289062 4.457031 -1.550781 C 4.457031 -0.828125 3.765625 -0.40625 2.800781 -0.40625 C 2.484375 -0.40625 1.972656 -0.558594 1.6875 -0.738281 L 1.324219 -1.761719 C 0.933594 -1.761719 0.601562 -1.476562 0.601562 -1.085938 C 0.601562 -0.226562 1.398438 0.164062 2.921875 0.164062 C 4.667969 0.164062 5.660156 -0.664062 5.660156 -1.941406 C 5.660156 -3.265625 4.515625 -3.78125 3.449219 -4.230469 C 2.742188 -4.53125 1.835938 -4.910156 1.835938 -5.707031 C 1.835938 -6.21875 2.394531 -6.640625 3.28125 -6.640625 Z M 3.28125 -6.640625 "/></g></g></g><g fill="#000000" fill-opacity="1"><g transform="translate(262.877594, 224.698412)"><g><path d="M 2.542969 -8.777344 L 1.851562 -8.945312 L 1.21875 -7.363281 L 0.152344 -7.03125 L 0.257812 -6.488281 L 1.128906 -6.488281 L 1.128906 -1.777344 C 1.128906 -0.675781 1.730469 0.164062 3.117188 0.164062 C 3.976562 0.164062 4.410156 -0.179688 4.910156 -0.707031 L 4.5625 -1.113281 C 4.246094 -0.769531 3.914062 -0.542969 3.371094 -0.542969 C 2.921875 -0.542969 2.542969 -0.949219 2.542969 -1.65625 L 2.542969 -6.488281 L 4.410156 -6.488281 L 4.515625 -7.03125 L 2.542969 -7.03125 Z M 2.542969 -8.777344 "/></g></g></g><g fill="#000000" fill-opacity="1"><g transform="translate(267.786406, 224.698412)"><g><path d="M 7.0625 -5.074219 C 7.0625 -6.625 5.886719 -7.199219 4.140625 -7.199219 C 2.03125 -7.199219 0.527344 -5.84375 0.527344 -3.523438 C 0.527344 -1.296875 1.777344 0.164062 4.441406 0.164062 C 5.421875 0.164062 6.382812 -0.136719 7.03125 -0.722656 L 6.6875 -1.21875 C 6.066406 -0.828125 5.332031 -0.542969 4.53125 -0.542969 C 3.164062 -0.542969 2.394531 -1.460938 2.183594 -2.832031 C 4.726562 -2.832031 7.0625 -3.238281 7.0625 -5.074219 Z M 2.125 -3.644531 C 2.125 -5.359375 2.785156 -6.640625 4.082031 -6.640625 C 5.121094 -6.640625 5.648438 -6.203125 5.648438 -5.253906 C 5.648438 -4.140625 4.09375 -3.371094 2.125 -3.359375 Z M 2.125 -3.644531 "/></g></g></g><g fill="#000000" fill-opacity="1"><g transform="translate(275.297674, 224.698412)"><g/></g></g></svg>