<?xml version="1.0" encoding="utf-8"?>
<!-- Generator: Adobe Illustrator 26.0.1, SVG Export Plug-In . SVG Version: 6.00 Build 0)  -->
<svg version="1.1" id="Calque_1" xmlns="http://www.w3.org/2000/svg" xmlns:xlink="http://www.w3.org/1999/xlink" x="0px" y="0px"
	 viewBox="0 0 300 300" style="enable-background:new 0 0 300 300;" xml:space="preserve">
<style type="text/css">
	.st0{fill:#FFFFFF;stroke:#FFFFFF;stroke-width:0.75;stroke-miterlimit:10;}
	.st1{fill:#FFFFFF;}
	.st2{font-family:'Montserrat-Medium';}
	.st3{font-size:31.6656px;}
	.st4{font-family:'Oswald-Light';}
	.st5{font-size:22.8158px;}
</style>
<g>
	<path class="st0" d="M124,62.8c0.4,0,0.8,0.8,0.8,1.7v0.2c-0.3,4.6-0.1,7.3-0.5,10.2c5-8.8,9.4-14.3,15.6-17.5c2-1,3.6-1.5,4.9-1.5
		c3.1,0,4.3,2.6,4.3,6.7c0,8-4.7,21.5-9.2,31c5.3-8,13.4-18.6,19.3-19.1h0.2c2.6,0,3.5,2.3,3.5,5.9c0,8.6-5.4,24.2-5.4,30.7
		c0,1.1,0.1,1.9,0.5,2.4c0.1,0.1,0.1,0.3,0.1,0.4c0,0.5-0.5,0.9-0.9,0.9c-0.2,0-0.5-0.1-0.5-0.5c-0.4-0.6-0.5-1.5-0.5-2.7
		c0-7.1,5.3-23.5,5.3-31.2c0-2.6-0.6-4.2-2.1-4.2H159c-8,0.8-22,26.8-23.2,26.8c-0.1,0.3-0.3,0.4-0.5,0.4c-0.4,0-0.8-0.4-0.8-0.9
		v-0.2c0-0.1,13.1-29.7,13.1-41c0-2.7-0.7-4.4-2.6-4.4c-0.8,0-1.9,0.3-3.1,1c-6.7,3.5-12.5,11.9-17.7,21.9
		c-1.8,12.8-6.7,30-10.9,34.7c-0.7,0.8-1.3,1.2-1.9,1.2h-0.1c-1,0-1.5-0.9-1.5-2.5c0-8.2,11.5-33.6,12.8-36
		c0.8-5.6,0.2-9.4,0.8-13.7C123.7,63,123.8,62.8,124,62.8z M122.8,82.7c-0.2,0.5-11.1,26.9-11.1,31.4c0,0.4,0.1,0.6,0.3,0.6
		c0.2,0,0.5-0.2,1-0.8C116.7,108.8,120.8,94.4,122.8,82.7z"/>
	<path class="st0" d="M166.9,91c0.4-0.1,0.7-0.1,1.1-0.1c3.7-0.2,5.4,2,5.6,4.9c0.3,4.1-2.4,9.7-6.1,11.8c-0.3,0.3-0.5,0.4-0.6,0.6
		c0.4,0.1,1,0.1,1.7,0.2c0.6,0.1,1.4,0.1,2.2,0.2c5.4-2.7,10.8-4.5,15.6-4.8c1.2-0.1,2.3-0.1,3.4,0.1c0.3,0.1,0.5,0.3,0.5,0.6
		c0,0.3-0.2,0.6-0.6,0.6l-0.1,0c-1.6-0.4-3.2-0.5-4.9-0.4c-3.6,0.2-7.5,1.7-11.5,4.4c8.8,1.6,13.3,8.4,13.8,16
		c0.3,4.8-1,9.8-3.8,14.1c-6.6,10.1-17.8,15.3-27.3,15.9c-9,0.6-16.5-3-17-10.3c-0.2-3.1,0.8-6.8,3.5-11.2c2.3-3.9,5.7-7.9,9.7-11.7
		c2.7-12.8,6.6-26.9,13.3-30.4c0.1-0.6,0.6-2,0.5-2.4c0-0.1,0-0.1-0.1-0.1c0,0-0.1,0-0.1,0c-0.3,0.2-0.5,0.3-0.8,0.3
		c-0.6,0-0.9-0.5-0.9-0.5c0.5-1.9,1.6-2.9,2.5-3c0.6,0,1.1,0.4,1.2,1.2c0,0.2,0,0.3,0,0.5C167.9,87.5,167.5,88.8,166.9,91z
		 M151.6,139.8c-0.1,0-0.3,0-0.4-0.1c-0.3,0-0.6-0.2-0.8-0.5c-0.1-0.3-0.2-0.7-0.3-1.3c-0.1-1,0-2.3,0.2-4c0.2-2.6,0.5-5,1.3-8.7
		l0.1-0.3c-3.3,3.3-5.2,6.4-7.3,9.8c-2.5,4.2-3.5,7.7-3.3,10.5c0.4,6.3,6.8,9,14.6,8.5c9.5-0.6,21.1-5.9,27.3-15.3
		c2.6-4,3.7-8.5,3.4-12.9c-0.5-7.7-5.5-14.6-14.9-15.7c-3.9,2-8.4,5.1-12,7.9C156.7,130.2,153.5,139.7,151.6,139.8z M151.6,138.4
		c1.6-0.1,4-8.3,6.3-19.5c-1.9,1.5-3.1,3-4.7,4.5c-0.1,0.7-0.3,1.4-0.4,2.1c-0.7,3.7-1,6-1.2,8.6c-0.2,1.7-0.2,2.9-0.2,3.7
		c0,0.2,0,0.4,0.1,0.6C151.5,138.4,151.6,138.4,151.6,138.4z M164.9,93.8c-4.1,3.7-8.5,15.1-11,26.5c1.5-1.4,3.2-2.8,4.8-4.1
		C161.2,107.7,163.4,99.5,164.9,93.8z M160.2,115.1c2.7-2,5.6-3.9,8.5-5.5l-0.2,0c-0.9-0.1-1.7-0.1-2.2-0.2
		c-0.6-0.2-0.9-0.4-0.9-0.9c0-0.1,0-0.3,0.1-0.5c0.1-0.3,0.5-0.8,1.3-1.4c2.9-2.3,4.9-7.1,4.7-10.3c-0.1-2.1-1.2-3.6-3.5-3.5
		c-0.5,0-1,0.1-1.6,0.3C165,98.4,162.7,106.4,160.2,115.1z"/>
</g>
<text transform="matrix(1 0 0 1 1.1089 191.2806)" class="st1 st2 st3">Morgane BERTAUD</text>
<text transform="matrix(1.0951 0 0 1 3.4214 222.2728)" class="st1 st4 st5">DIETETICIENNE - NUTRITIONNISTE</text>
</svg>
