<?xml version="1.0" encoding="utf-8"?>
<!-- Generator: Adobe Illustrator 26.0.1, SVG Export Plug-In . SVG Version: 6.00 Build 0)  -->
<svg version="1.1" id="Calque_1" xmlns="http://www.w3.org/2000/svg" xmlns:xlink="http://www.w3.org/1999/xlink" x="0px" y="0px"
	 viewBox="0 0 300 300" style="enable-background:new 0 0 300 300;" xml:space="preserve">
<style type="text/css">
	.st0{fill:#006D6E;}
</style>
<path class="st0" d="M95.03,187.67h-5.76c-2.94,0-5.03-0.9-6.27-2.71c-1.24-1.81-1.86-5.08-1.86-9.83v-34.9l33.55-50.15h19.99
	l-28.8,51.51h19.32c2.93,0,5.02,0.85,6.27,2.54c1.24,1.69,1.86,5.03,1.86,10v21.01c0,5.2-0.62,8.59-1.86,10.17
	c-1.24,1.58-5.25,2.37-12.03,2.37H95.03z M179.06,187.67h-5.76c-3.17,0-5.37-0.9-6.61-2.71c-1.24-1.81-1.86-5.08-1.86-9.83v-34.9
	l33.55-50.15h20.33l-28.8,51.51h19.32c2.93,0,5.02,0.85,6.27,2.54c1.24,1.69,1.86,5.03,1.86,10v21.01c0,5.2-0.68,8.59-2.03,10.17
	c-1.36,1.58-5.42,2.37-12.2,2.37H179.06z"/>
</svg>
